<svg width="498" height="498" viewBox="0 0 498 498" fill="none" xmlns="http://www.w3.org/2000/svg">
<path d="M480.185 439H17.8137C12.3423 439 8 434.487 8 429C8 423.425 12.4292 419 17.8137 419H480.185C485.656 419 489.999 423.513 489.999 429C490.086 434.487 485.656 439 480.185 439Z" fill="#36303E"/>
<path d="M368 373H294V402H368V373Z" fill="#403A46"/>
<path opacity="0.75" d="M368 376H294V391H368V376Z" fill="#37333D"/>
<path d="M368 373H294V402H368V373Z" stroke="#36303E" stroke-width="4" stroke-miterlimit="10" stroke-linecap="round" stroke-linejoin="round"/>
<path d="M440 128H261C261 112.512 273.426 100 288.806 100H412.194C427.574 100 440 112.512 440 128Z" fill="#403A46"/>
<path opacity="0.13" d="M281.078 114H420.922C427.413 114 429.403 104.9 423.432 102.275C420.057 100.788 416.336 100 412.442 100H289.558C285.664 100 281.943 100.788 278.568 102.275C272.597 104.9 274.587 114 281.078 114Z" fill="#EDEDED"/>
<path d="M440 128H261C261 112.512 273.426 100 288.806 100H412.194C427.574 100 440 112.512 440 128Z" stroke="#36303E" stroke-width="4" stroke-miterlimit="10" stroke-linecap="round" stroke-linejoin="round"/>
<path d="M243 330H211V359H243V330Z" fill="#403A46"/>
<path d="M243 330H211V359H243V330Z" stroke="#372F3C" stroke-width="4" stroke-miterlimit="10" stroke-linecap="round" stroke-linejoin="round"/>
<path d="M413.704 380H259.147C243.473 380 231.283 366.397 233.199 350.702L260.627 128H440V354.015C440 368.403 428.158 380 413.704 380Z" fill="#FCAF43"/>
<path d="M239.468 361H233V353H247C247 357.424 243.633 361 239.468 361Z" fill="#FA932A"/>
<path d="M429.512 153.524V350.168C429.512 361.823 420.064 371.303 408.45 371.303H257.547C253.3 371.303 249.833 374.869 250.006 379.13C252.086 379.652 257.72 380 259.974 380H413.824C428.212 380 440 368.172 440 353.734V143C434.193 143 429.512 147.697 429.512 153.524Z" fill="#FA932A"/>
<path d="M433 315H427.628C424.473 315 422 317.604 422 320.729V357.535C422 361.701 425.326 365 429.333 365H433V315Z" fill="#FA932A"/>
<path d="M380.552 140H260.198L238 320H380.552C403.531 320 422 301.567 422 278.635V181.106C422 158.087 403.531 140 380.552 140Z" fill="#3BA2DC"/>
<path opacity="0.63" d="M377.281 321H331V303.632C331 276.797 352.96 255 379.993 255H424V274.626C424 300.245 403.09 321 377.281 321Z" fill="#36303E"/>
<path opacity="0.63" d="M424 255H393V221.697C393 213.025 400.053 206 408.761 206H424V255Z" fill="#36303E"/>
<path opacity="0.63" d="M424 206H414V180.78C414 177.54 416.752 175 420.055 175H423.908V206H424Z" fill="#36303E"/>
<path d="M244.676 265L238 320H295L244.676 265Z" fill="#385A78"/>
<path d="M307 258L287 281" stroke="#385A78" stroke-width="6" stroke-miterlimit="10" stroke-linecap="round" stroke-linejoin="round"/>
<path d="M322 274L293 243" stroke="#385A78" stroke-width="6" stroke-miterlimit="10" stroke-linecap="round" stroke-linejoin="round"/>
<path d="M275.717 301L266 290.116L282.768 273L293 283.445L275.717 301Z" fill="#385A78"/>
<path opacity="0.76" d="M380.552 140H260.198L238 320H380.552C403.531 320 422 301.567 422 278.635V181.106C422 158.087 403.531 140 380.552 140Z" fill="#3BA2DC"/>
<path opacity="0.35" d="M353.09 140H293L421.481 285C421.827 282.924 422 280.761 422 278.598V217.777L353.09 140Z" fill="white"/>
<path opacity="0.35" d="M273.637 140H260L409.572 308C412.004 305.577 414.176 302.807 416 299.864L273.637 140Z" fill="white"/>
<path opacity="0.35" d="M260.613 128L233.174 350.302C233.087 351.172 233 352.043 233 353C238.836 353 243.714 348.648 244.411 342.903L270.02 135.224H427.77C431.777 135.224 435 132.004 435 128H260.613V128Z" fill="#FDE3BE"/>
<path opacity="0.08" d="M380.478 140H259.907L254 187.887H261.384H286.922H381.868C401.065 187.887 417.135 200.485 422 218V180.985C422 158.033 403.497 140 380.478 140Z" fill="white"/>
<path d="M380.552 140H260.198L238 320H380.552C403.531 320 422 301.567 422 278.635V181.106C422 158.087 403.531 140 380.552 140Z" stroke="#36303E" stroke-width="4" stroke-miterlimit="10" stroke-linecap="round" stroke-linejoin="round"/>
<path d="M413.704 380H259.147C243.473 380 231.283 366.397 233.199 350.702L260.627 128H440V354.015C440 368.403 428.158 380 413.704 380Z" stroke="#36303E" stroke-width="4" stroke-miterlimit="10" stroke-linecap="round" stroke-linejoin="round"/>
<path d="M202.196 165V359.196H8C8 367.382 14.6183 374 22.8042 374H203.067H217V360.067V165H202.196Z" fill="#67646D"/>
<path opacity="0.13" d="M199.219 365H16.6944C15.2168 365 14 363.645 14 362C14 360.355 15.2168 359 16.6944 359H199.306C200.783 359 202 360.355 202 362C202 363.645 200.783 365 199.219 365Z" fill="#EDEDED"/>
<path opacity="0.13" d="M205.5 361C203.566 361 202 359.516 202 357.683V173.317C202 171.484 203.566 170 205.5 170C207.434 170 209 171.484 209 173.317V357.683C209 359.516 207.434 361 205.5 361Z" fill="#EDEDED"/>
<path d="M202.196 170.2V358.267H8C8 366.413 14.6183 373 22.8042 373H203.067H217V359.133V170.2C217 167.34 214.649 165 211.775 165H207.334C204.46 165.087 202.196 167.34 202.196 170.2Z" stroke="#372F3C" stroke-width="4" stroke-miterlimit="10" stroke-linecap="round" stroke-linejoin="round"/>
<path d="M274.663 141.167H263.2C264.25 135.637 267.488 130.897 272.038 128H261.1C255.587 131.599 252 137.831 252 144.941C252 145.293 252 145.644 252 145.995C252 146.17 252 146.346 252 146.522V173.733C252 176.63 254.363 179 257.25 179H274.75C277.637 179 280 176.63 280 173.733V146.522C279.912 143.537 277.55 141.167 274.663 141.167Z" fill="#403A46"/>
<path opacity="0.74" d="M274.382 149.35V171.454C274.382 173.319 272.89 174.739 271.135 174.739H252C252.527 177.136 254.633 179 257.179 179H274.734C277.63 179 280 176.603 280 173.674V146.154C280 145.799 279.912 145.355 279.912 145H278.771C276.314 145 274.382 146.953 274.382 149.35Z" fill="#36303E"/>
<path opacity="0.13" d="M255.5 174H252V142.826C252 141.285 253.591 140 255.5 140C257.409 140 259 141.285 259 142.826V171.174C258.894 172.715 257.409 174 255.5 174Z" fill="#EDEDED"/>
<path d="M274.663 141.167H263.2C264.25 135.637 267.488 130.897 272.038 128H261.1C255.587 131.599 252 137.831 252 144.941C252 145.293 252 145.644 252 145.995C252 146.17 252 146.346 252 146.522V173.733C252 176.63 254.363 179 257.25 179H274.75C277.637 179 280 176.63 280 173.733V146.522C279.912 143.537 277.55 141.167 274.663 141.167Z" stroke="#36303E" stroke-width="4" stroke-miterlimit="10" stroke-linecap="round" stroke-linejoin="round"/>
<path d="M325.286 393.75C325.286 395.835 323.375 397.746 323.027 399.743C322.68 401.828 323.809 404.26 323.114 406.171C322.419 408.168 319.987 409.297 318.945 411.035C317.903 412.859 318.163 415.551 316.774 417.115C315.471 418.678 312.778 418.939 311.128 420.241C309.565 421.544 308.87 424.15 307.046 425.192C305.222 426.234 302.616 425.54 300.705 426.234C298.794 426.929 297.231 429.188 295.147 429.535C293.149 429.882 290.891 428.319 288.806 428.319C286.721 428.319 284.463 429.882 282.466 429.535C280.381 429.188 278.818 426.929 276.907 426.234C274.909 425.54 272.303 426.234 270.566 425.192C268.742 424.15 268.047 421.544 266.484 420.241C264.921 418.939 262.228 418.678 260.838 417.115C259.535 415.551 259.709 412.859 258.667 411.035C257.625 409.211 255.193 408.082 254.498 406.171C253.803 404.26 254.932 401.828 254.585 399.743C254.237 397.746 252.326 395.835 252.326 393.75C252.326 391.666 254.237 389.755 254.585 387.757C254.932 385.673 253.803 383.241 254.498 381.33C255.193 379.332 257.625 378.203 258.667 376.466C259.709 374.642 259.449 371.949 260.838 370.386C262.141 368.822 264.834 368.562 266.484 367.259C268.047 365.956 268.742 363.351 270.566 362.308C272.39 361.266 274.996 361.961 276.907 361.266C278.818 360.571 280.381 358.313 282.466 357.965C284.463 357.618 286.721 359.181 288.806 359.181C290.891 359.181 293.149 357.618 295.147 357.965C297.231 358.313 298.794 360.571 300.705 361.266C302.703 361.961 305.309 361.266 307.046 362.308C308.87 363.351 309.565 365.956 311.128 367.259C312.691 368.562 315.384 368.822 316.774 370.386C318.077 371.949 317.903 374.642 318.945 376.466C319.987 378.29 322.419 379.419 323.114 381.33C323.809 383.241 322.68 385.673 323.027 387.757C323.375 389.755 325.286 391.666 325.286 393.75Z" fill="#403A46"/>
<path opacity="0.4" d="M345 80C342.796 80 341 78.0622 341 75.6839V67.3161C341 64.9378 342.796 63 345 63C347.204 63 349 64.9378 349 67.3161V75.6839C349 78.0622 347.204 80 345 80Z" fill="#FDE3BE"/>
<path d="M324.07 402.87C323.548 404.955 321.203 406.257 320.335 408.168C319.466 410.079 319.987 412.772 318.771 414.422C317.555 416.159 314.95 416.68 313.473 418.07C311.997 419.546 311.562 422.239 309.912 423.455C308.262 424.671 305.569 424.237 303.658 425.105C301.834 425.974 300.445 428.319 298.447 428.927C296.449 429.448 294.104 428.145 292.02 428.319C289.935 428.493 287.937 430.23 285.853 430.056C283.855 429.882 282.031 427.885 280.034 427.277C278.036 426.669 275.43 427.711 273.606 426.842C271.695 425.974 270.74 423.455 269.09 422.239C267.352 421.023 264.66 421.023 263.183 419.633C261.707 418.157 261.707 415.464 260.491 413.814C259.275 412.164 256.756 411.208 255.887 409.384C255.019 407.56 255.887 404.955 255.366 402.957C254.845 400.959 252.761 399.222 252.5 397.138C252.326 395.053 253.977 392.968 254.15 390.884C254.324 388.886 252.934 386.541 253.456 384.457C253.977 382.372 256.322 381.069 257.19 379.158C258.059 377.247 257.538 374.555 258.754 372.905C259.97 371.168 262.575 370.646 264.052 369.257C265.529 367.78 265.963 365.088 267.613 363.872C269.263 362.656 271.956 363.09 273.867 362.221C275.691 361.353 277.08 359.008 279.078 358.4C281.076 357.879 283.421 359.181 285.505 359.008C287.59 358.834 289.588 357.097 291.672 357.271C293.67 357.444 295.494 359.442 297.492 360.05C299.489 360.658 302.095 359.616 303.919 360.484C305.83 361.353 306.785 363.872 308.436 365.088C310.173 366.304 312.865 366.304 314.342 367.693C315.818 369.17 315.818 371.862 317.034 373.513C318.25 375.163 320.769 376.118 321.638 377.942C322.506 379.766 321.638 382.372 322.159 384.37C322.68 386.367 324.764 388.104 325.025 390.189C325.199 392.274 323.548 394.358 323.375 396.443C323.288 398.527 324.591 400.872 324.07 402.87Z" stroke="#36303E" stroke-width="6" stroke-miterlimit="10" stroke-linecap="round" stroke-linejoin="round"/>
<path d="M289 415C301.15 415 311 405.374 311 393.5C311 381.626 301.15 372 289 372C276.85 372 267 381.626 267 393.5C267 405.374 276.85 415 289 415Z" fill="#9B989F"/>
<path d="M289 379.326C299.912 379.326 308.976 387.457 310.736 398C310.912 396.838 311 395.588 311 394.337C311 382.007 301.144 372 289 372C276.856 372 267 382.007 267 394.337C267 395.588 267.088 396.838 267.264 398C268.936 387.368 278 379.326 289 379.326Z" fill="#8F8D91"/>
<path d="M288.5 403C293.747 403 298 398.747 298 393.5C298 388.253 293.747 384 288.5 384C283.253 384 279 388.253 279 393.5C279 398.747 283.253 403 288.5 403Z" fill="#FCAF43"/>
<path d="M288.5 403C293.747 403 298 398.747 298 393.5C298 388.253 293.747 384 288.5 384C283.253 384 279 388.253 279 393.5C279 398.747 283.253 403 288.5 403Z" stroke="#36303E" stroke-width="4" stroke-miterlimit="10" stroke-linecap="round" stroke-linejoin="round"/>
<path d="M289 415C301.15 415 311 405.374 311 393.5C311 381.626 301.15 372 289 372C276.85 372 267 381.626 267 393.5C267 405.374 276.85 415 289 415Z" stroke="#36303E" stroke-width="4" stroke-miterlimit="10" stroke-linecap="round" stroke-linejoin="round"/>
<path d="M418.743 393.75C418.743 395.835 416.832 397.746 416.485 399.743C416.137 401.828 417.266 404.26 416.572 406.171C415.877 408.168 413.445 409.297 412.402 411.035C411.36 412.859 411.621 415.551 410.231 417.115C408.928 418.678 406.236 418.939 404.585 420.241C403.022 421.544 402.327 424.15 400.503 425.192C398.679 426.234 396.073 425.54 394.163 426.234C392.252 426.929 390.688 429.188 388.604 429.535C386.606 429.882 384.348 428.319 382.263 428.319C380.179 428.319 377.92 429.882 375.923 429.535C373.838 429.188 372.275 426.929 370.364 426.234C368.366 425.54 365.761 426.234 364.024 425.192C362.2 424.15 361.505 421.544 359.941 420.241C358.378 418.939 355.685 418.678 354.296 417.115C352.993 415.551 353.167 412.859 352.124 411.035C351.082 409.211 348.65 408.082 347.955 406.171C347.26 404.26 348.389 401.828 348.042 399.743C347.695 397.746 345.784 395.835 345.784 393.75C345.784 391.666 347.695 389.755 348.042 387.757C348.389 385.673 347.26 383.241 347.955 381.33C348.65 379.332 351.082 378.203 352.124 376.466C353.167 374.642 352.906 371.949 354.296 370.386C355.598 368.822 358.291 368.562 359.941 367.259C361.505 365.956 362.2 363.351 364.024 362.308C365.848 361.266 368.453 361.961 370.364 361.266C372.275 360.571 373.838 358.313 375.923 357.965C377.92 357.618 380.179 359.181 382.263 359.181C384.348 359.181 386.606 357.618 388.604 357.965C390.688 358.313 392.252 360.571 394.163 361.266C396.16 361.961 398.766 361.266 400.503 362.308C402.327 363.351 403.022 365.956 404.585 367.259C406.149 368.562 408.841 368.822 410.231 370.386C411.534 371.949 411.36 374.642 412.402 376.466C413.445 378.29 415.877 379.419 416.572 381.33C417.266 383.241 416.137 385.673 416.485 387.757C416.832 389.755 418.743 391.666 418.743 393.75Z" fill="#403A46"/>
<path d="M417.527 402.87C417.006 404.955 414.661 406.257 413.792 408.168C412.923 410.079 413.445 412.772 412.229 414.422C411.013 416.159 408.407 416.68 406.93 418.07C405.454 419.546 405.02 422.239 403.369 423.455C401.719 424.671 399.026 424.237 397.116 425.105C395.292 425.974 393.902 428.319 391.904 428.927C389.907 429.448 387.561 428.145 385.477 428.319C383.392 428.493 381.395 430.23 379.31 430.056C377.312 429.882 375.488 427.885 373.491 427.277C371.406 426.755 368.887 427.711 367.063 426.842C365.153 425.974 364.197 423.455 362.547 422.239C360.81 421.023 358.117 421.023 356.641 419.633C355.164 418.157 355.164 415.464 353.948 413.814C352.732 412.164 350.213 411.208 349.345 409.384C348.476 407.56 349.345 404.955 348.824 402.957C348.302 400.959 346.218 399.222 345.957 397.138C345.784 395.053 347.434 392.968 347.608 390.884C347.781 388.886 346.392 386.541 346.913 384.457C347.434 382.372 349.779 381.069 350.648 379.158C351.516 377.247 350.995 374.555 352.211 372.905C353.427 371.168 356.033 370.646 357.509 369.257C358.986 367.78 359.42 365.088 361.07 363.872C362.721 362.656 365.413 363.09 367.324 362.221C369.148 361.353 370.538 359.008 372.535 358.4C374.533 357.879 376.878 359.181 378.963 359.008C381.047 358.834 383.045 357.097 385.129 357.271C387.127 357.444 388.951 359.442 390.949 360.05C393.033 360.571 395.552 359.616 397.376 360.484C399.287 361.353 400.242 363.872 401.893 365.088C403.63 366.304 406.322 366.304 407.799 367.693C409.275 369.17 409.275 371.862 410.491 373.513C411.707 375.163 414.226 376.118 415.095 377.942C415.963 379.766 415.095 382.372 415.616 384.37C416.137 386.367 418.222 388.104 418.482 390.189C418.656 392.274 417.006 394.358 416.832 396.443C416.745 398.527 418.135 400.872 417.527 402.87Z" stroke="#36303E" stroke-width="6" stroke-miterlimit="10" stroke-linecap="round" stroke-linejoin="round"/>
<path d="M382 415C394.15 415 404 405.374 404 393.5C404 381.626 394.15 372 382 372C369.85 372 360 381.626 360 393.5C360 405.374 369.85 415 382 415Z" fill="#9B989F"/>
<path d="M382 379.326C392.912 379.326 401.976 387.457 403.736 398C403.912 396.838 404 395.588 404 394.337C404 382.007 394.144 372 382 372C369.856 372 360 382.007 360 394.337C360 395.588 360.088 396.838 360.264 398C362.024 387.368 371.088 379.326 382 379.326Z" fill="#8F8D91"/>
<path d="M382.5 403C387.194 403 391 398.747 391 393.5C391 388.253 387.194 384 382.5 384C377.806 384 374 388.253 374 393.5C374 398.747 377.806 403 382.5 403Z" fill="#FCAF43"/>
<path d="M382.5 403C387.194 403 391 398.747 391 393.5C391 388.253 387.194 384 382.5 384C377.806 384 374 388.253 374 393.5C374 398.747 377.806 403 382.5 403Z" stroke="#36303E" stroke-width="4" stroke-miterlimit="10" stroke-linecap="round" stroke-linejoin="round"/>
<path d="M382 415C394.15 415 404 405.374 404 393.5C404 381.626 394.15 372 382 372C369.85 372 360 381.626 360 393.5C360 405.374 369.85 415 382 415Z" stroke="#36303E" stroke-width="4" stroke-miterlimit="10" stroke-linecap="round" stroke-linejoin="round"/>
<path d="M368 86H342V100H368V86Z" fill="#67646D"/>
<path opacity="0.75" d="M368 95H342V100H368V95Z" fill="#403A46"/>
<path d="M368 86H342V100H368V86Z" stroke="#36303E" stroke-width="4" stroke-miterlimit="10" stroke-linecap="round" stroke-linejoin="round"/>
<path d="M368 86H342V68.3379C342 63.7655 345.592 60 349.954 60H360.046C364.408 60 368 63.7655 368 68.3379V86Z" fill="#FCAF43"/>
<path opacity="0.4" d="M347 80H343V67.4041C343 65.0259 344.76 63 347 63C349.16 63 351 64.9378 351 67.4041V75.6839C350.92 78.0622 349.16 80 347 80Z" fill="#FDE3BE"/>
<path d="M362.099 68.7118V81.5932H342V86H368V68.6271C368 67.1864 366.974 66 365.776 66H364.493C363.211 66 362.099 67.2712 362.099 68.7118Z" fill="#FA932A"/>
<path d="M368 86H342V68.3379C342 63.7655 345.592 60 349.954 60H360.046C364.408 60 368 63.7655 368 68.3379V86Z" stroke="#36303E" stroke-width="4" stroke-miterlimit="10" stroke-linecap="round" stroke-linejoin="round"/>
<path d="M440.528 357H430V322H440.528C443.596 322 446 324.651 446 327.833V351.167C446 354.437 443.513 357 440.528 357Z" fill="#C71F2C"/>
<path opacity="0.27" d="M431.812 352H431V326.922C431 325.874 431.625 325 432.375 325C433.25 325 434 325.961 434 327.272V349.029C433.937 350.689 433 352 431.812 352Z" fill="#FDE3BE"/>
<path d="M441.192 322C441.192 322.177 441.275 322.265 441.275 322.442V350.636C441.275 352.227 440.114 353.465 438.622 353.465H430V357H440.528C443.596 357 446 354.349 446 351.167V327.833C446 324.828 443.845 322.354 441.192 322Z" fill="#AD1E2F"/>
<path d="M440.528 357H431.99C430.912 357 430 356.028 430 354.879V324.121C430 322.972 430.912 322 431.99 322H440.528C443.596 322 446 324.651 446 327.833V351.167C446 354.437 443.513 357 440.528 357Z" stroke="#36303E" stroke-width="4" stroke-miterlimit="10" stroke-linecap="round" stroke-linejoin="round"/>
<path d="M202 358H8C8 355.246 10.6969 353 14.0027 353H202V358Z" fill="#36303E"/>
<path d="M202 358H8C8 355.246 10.6969 353 14.0027 353H202V358Z" stroke="#372F3C" stroke-width="4" stroke-miterlimit="10" stroke-linecap="round" stroke-linejoin="round"/>
<path d="M309 330H365" stroke="#FA932A" stroke-width="5" stroke-miterlimit="10" stroke-linecap="round" stroke-linejoin="round"/>
<path d="M310 340H322" stroke="#FA932A" stroke-width="5" stroke-miterlimit="10" stroke-linecap="round" stroke-linejoin="round"/>
<path d="M310 348H332" stroke="#FA932A" stroke-width="5" stroke-miterlimit="10" stroke-linecap="round" stroke-linejoin="round"/>
<path d="M248 353H234.742C231.618 353 229 350.478 229 347.283V339.717C229 336.606 231.533 334 234.742 334H248V353Z" fill="#C71F2C"/>
<path opacity="0.27" d="M230 350V336C231.615 336 233 337.451 233 339.329V346.671C233 348.549 231.615 350 230 350Z" fill="#FDE3BE"/>
<path d="M248 334H239V353H248V334Z" fill="#FFB808"/>
<path d="M243.5 353C241.009 353 239 350.879 239 348.25V338.75C239 336.121 241.009 334 243.5 334C245.991 334 248 336.121 248 338.75V348.25C248 350.795 245.991 353 243.5 353Z" stroke="#36303E" stroke-width="4" stroke-miterlimit="10" stroke-linecap="round" stroke-linejoin="round"/>
<path d="M243.524 353H234.742C231.618 353 229 350.478 229 347.283V339.717C229 336.606 231.533 334 234.742 334H243.524C245.973 334 248 336.018 248 338.456V348.46C248 350.982 245.973 353 243.524 353Z" stroke="#36303E" stroke-width="4" stroke-miterlimit="10" stroke-linecap="round" stroke-linejoin="round"/>
<path d="M165.287 355H44.7127C36.6164 355 30 348.428 30 340.385V220.615C30 212.572 36.6164 206 44.7127 206H165.287C173.384 206 180 212.572 180 220.615V340.385C180 348.428 173.384 355 165.287 355Z" fill="#47A942"/>
<path d="M35.6587 330.363V232.885C35.6587 224.819 42.2751 218.228 50.3715 218.228H159.629C167.725 218.228 174.341 224.819 174.341 232.885V330.363C174.341 333.485 176.866 336 180 336V220.656C180 212.591 173.384 206 165.287 206H44.7127C36.6164 206 30 212.591 30 220.656V336C33.1341 335.913 35.6587 333.398 35.6587 330.363Z" fill="#81C347"/>
<path d="M105 319C126.539 319 144 301.763 144 280.5C144 259.237 126.539 242 105 242C83.4609 242 66 259.237 66 280.5C66 301.763 83.4609 319 105 319Z" fill="#5CB342"/>
<path d="M33 212H177C174.409 208.368 169.917 206 164.82 206H45.18C40.0834 206 35.5915 208.447 33 212Z" fill="#CADB2A"/>
<path d="M81 265.59V209.416C81 206.446 83.3917 204 86.2958 204H116.704C119.608 204 122 206.446 122 209.416V243.837C122 245.584 121.146 247.244 119.779 248.293L89.3708 270.046C85.7833 272.492 81 269.958 81 265.59Z" fill="#26863F" stroke="#26863F" stroke-width="5" stroke-miterlimit="10"/>
<path d="M165.287 344.619H44.7127C36.6164 344.619 30 338.045 30 330V340.381C30 348.426 36.6164 355 44.7127 355H165.287C173.384 355 180 348.426 180 340.381V330C180 338.045 173.384 344.619 165.287 344.619Z" fill="#26863F"/>
<path d="M165.287 355H44.7127C36.6164 355 30 348.428 30 340.385V220.615C30 212.572 36.6164 206 44.7127 206H165.287C173.384 206 180 212.572 180 220.615V340.385C180 348.428 173.384 355 165.287 355Z" stroke="#36303E" stroke-width="4" stroke-miterlimit="10" stroke-linecap="round" stroke-linejoin="round"/>
<path d="M79 266.968V204.054C79 202.396 80.3667 201 81.9896 201H117.01C118.633 201 120 202.396 120 204.054V242.012C120 242.972 119.488 243.932 118.719 244.542L83.6979 269.498C81.7333 270.807 79 269.411 79 266.968Z" fill="#F78F1E"/>
<path d="M117.01 201H81.9896C80.3667 201 79 202.389 79 204.038V226H120V204.038C120 202.389 118.633 201 117.01 201Z" fill="#FDB813"/>
<path d="M117.01 201H81.9896C80.3667 201 79 202.455 79 204.182V209H120V204.182C120 202.455 118.633 201 117.01 201Z" fill="#FEF200"/>
<path d="M79 266.968V204.054C79 202.396 80.3667 201 81.9896 201H117.01C118.633 201 120 202.396 120 204.054V242.012C120 242.972 119.488 243.932 118.719 244.542L83.6979 269.498C81.7333 270.807 79 269.411 79 266.968Z" stroke="#36303E" stroke-width="4" stroke-miterlimit="10" stroke-linecap="round" stroke-linejoin="round"/>
<path d="M45.5 316C44.129 316 43 314.773 43 313.283V230.717C43 229.227 44.129 228 45.5 228C46.871 228 48 229.227 48 230.717V313.283C48 314.773 46.871 316 45.5 316Z" fill="#81C347"/>
<path d="M45.5 328C44.129 328 43 326.742 43 325.214V322.787C43 321.258 44.129 320 45.5 320C46.871 320 48 321.258 48 322.787V325.214C48 326.742 46.871 328 45.5 328Z" fill="#81C347"/>
<path opacity="0.28" d="M163 331C161.355 331 160 329.79 160 328.321V228.679C160 227.21 161.355 226 163 226C164.645 226 166 227.21 166 228.679V328.235C166 329.79 164.645 331 163 331Z" fill="#26863F"/>
<path d="M271.154 149H262.846C261.831 149 261 148.1 261 147C261 145.9 261.831 145 262.846 145H271.154C272.169 145 273 145.9 273 147C273 148.1 272.169 149 271.154 149Z" fill="#4F4F59"/>
</svg>
