<svg width="430" height="90" viewBox="0 0 430 90" fill="none" xmlns="http://www.w3.org/2000/svg">
<path d="M92.4824 66V23.9883H122.482V32.3965H101.916V40.1309H120.637V48.5391H101.916V57.6504H122.482V66H92.4824ZM127.902 66V34.623H136.193L136.926 37.6113H137.16C139.172 35.248 142.033 34.0664 145.744 34.0664C149.26 34.0664 152.072 35.0918 154.182 37.1426C156.311 39.2129 157.375 41.9473 157.375 45.3457V66H148.146V48.2461C148.146 44.3984 146.379 42.4746 142.844 42.4746C141.145 42.4746 139.787 43.0117 138.771 44.0859C137.697 45.2188 137.16 46.7227 137.16 48.5977V66H127.902ZM176.447 80.2676C172.189 80.2676 168.771 79.2129 166.193 77.1035C163.576 74.9551 162.238 72.1523 162.18 68.6953H171.232C171.35 69.7891 171.887 70.668 172.844 71.332C173.82 72.0156 175.021 72.3574 176.447 72.3574C178.4 72.3574 179.924 71.8984 181.018 70.9805C182.053 70.0625 182.57 68.8613 182.57 67.377V63.0117H182.336C180.344 65.3555 177.561 66.5273 173.986 66.5273C170.1 66.5273 167.023 65.0137 164.758 61.9863C162.434 59.0176 161.271 55.1309 161.271 50.3262C161.271 45.5215 162.434 41.6055 164.758 38.5781C167.062 35.5703 170.139 34.0664 173.986 34.0664C177.541 34.0664 180.324 35.248 182.336 37.6113H182.57L183.537 34.623H191.828V67.4941C191.828 71.3418 190.383 74.4473 187.492 76.8105C184.66 79.1152 180.979 80.2676 176.447 80.2676ZM170.646 50.3262C170.646 55.7363 172.707 58.4414 176.828 58.4414C180.949 58.4414 183.01 55.7363 183.01 50.3262C183.01 47.9043 182.502 45.9512 181.486 44.4668C180.432 42.9434 178.879 42.1816 176.828 42.1816C174.758 42.1816 173.195 42.9434 172.141 44.4668C171.145 45.9121 170.646 47.8652 170.646 50.3262ZM201.906 31.4297C200.109 31.4297 198.732 30.9512 197.775 29.9941C196.818 29.0957 196.34 27.7773 196.34 26.0391C196.34 24.3594 196.818 23.041 197.775 22.084C198.752 21.166 200.129 20.707 201.906 20.707C203.625 20.707 205.002 21.166 206.037 22.084C207.014 23.0605 207.502 24.3789 207.502 26.0391C207.502 27.6992 207.014 29.0176 206.037 29.9941C205.021 30.9512 203.645 31.4297 201.906 31.4297ZM197.219 66V34.623H206.477V66H197.219ZM211.867 66V34.623H220.158L220.891 37.6113H221.125C223.137 35.248 225.998 34.0664 229.709 34.0664C233.225 34.0664 236.037 35.0918 238.146 37.1426C240.275 39.2129 241.34 41.9473 241.34 45.3457V66H232.111V48.2461C232.111 44.3984 230.344 42.4746 226.809 42.4746C225.109 42.4746 223.752 43.0117 222.736 44.0859C221.662 45.2188 221.125 46.7227 221.125 48.5977V66H211.867ZM260.793 66.5273C256.008 66.5273 252.229 64.9941 249.455 61.9277C246.643 58.8809 245.236 55.0137 245.236 50.3262C245.236 45.5996 246.574 41.7227 249.25 38.6953C251.984 35.6094 255.764 34.0664 260.588 34.0664C265.197 34.0664 268.859 35.5117 271.574 38.4023C274.25 41.3125 275.588 44.9746 275.588 49.3887V52.7871H254.67C254.729 54.7402 255.246 56.2637 256.223 57.3574C257.219 58.4707 258.742 59.0273 260.793 59.0273C263.645 59.0273 265.461 57.9922 266.242 55.9219H275.178C274.768 58.8906 273.293 61.4102 270.754 63.4805C268.195 65.5117 264.875 66.5273 260.793 66.5273ZM254.729 46.9863H266.184C266.125 45.4434 265.627 44.1445 264.689 43.0898C263.732 42.1328 262.365 41.6543 260.588 41.6543C258.713 41.6543 257.297 42.1328 256.34 43.0898C255.324 44.1055 254.787 45.4043 254.729 46.9863ZM294.133 66.5273C289.348 66.5273 285.568 64.9941 282.795 61.9277C279.982 58.8809 278.576 55.0137 278.576 50.3262C278.576 45.5996 279.914 41.7227 282.59 38.6953C285.324 35.6094 289.104 34.0664 293.928 34.0664C298.537 34.0664 302.199 35.5117 304.914 38.4023C307.59 41.3125 308.928 44.9746 308.928 49.3887V52.7871H288.01C288.068 54.7402 288.586 56.2637 289.562 57.3574C290.559 58.4707 292.082 59.0273 294.133 59.0273C296.984 59.0273 298.801 57.9922 299.582 55.9219H308.518C308.107 58.8906 306.633 61.4102 304.094 63.4805C301.535 65.5117 298.215 66.5273 294.133 66.5273ZM288.068 46.9863H299.523C299.465 45.4434 298.967 44.1445 298.029 43.0898C297.072 42.1328 295.705 41.6543 293.928 41.6543C292.053 41.6543 290.637 42.1328 289.68 43.0898C288.664 44.1055 288.127 45.4043 288.068 46.9863ZM313.41 66V34.623H321.115L321.818 39.1934H322.053C323.713 35.7754 326.398 34.0664 330.109 34.0664H332.248V42.5332H329.26C327.072 42.5332 325.334 43.2363 324.045 44.6426C322.717 46.0879 322.053 48.0508 322.053 50.5312V66H313.41ZM341.418 31.4297C339.621 31.4297 338.244 30.9512 337.287 29.9941C336.33 29.0957 335.852 27.7773 335.852 26.0391C335.852 24.3594 336.33 23.041 337.287 22.084C338.264 21.166 339.641 20.707 341.418 20.707C343.137 20.707 344.514 21.166 345.549 22.084C346.525 23.0605 347.014 24.3789 347.014 26.0391C347.014 27.6992 346.525 29.0176 345.549 29.9941C344.533 30.9512 343.156 31.4297 341.418 31.4297ZM336.73 66V34.623H345.988V66H336.73ZM351.379 66V34.623H359.67L360.402 37.6113H360.637C362.648 35.248 365.51 34.0664 369.221 34.0664C372.736 34.0664 375.549 35.0918 377.658 37.1426C379.787 39.2129 380.852 41.9473 380.852 45.3457V66H371.623V48.2461C371.623 44.3984 369.855 42.4746 366.32 42.4746C364.621 42.4746 363.264 43.0117 362.248 44.0859C361.174 45.2188 360.637 46.7227 360.637 48.5977V66H351.379ZM399.924 80.2676C395.666 80.2676 392.248 79.2129 389.67 77.1035C387.053 74.9551 385.715 72.1523 385.656 68.6953H394.709C394.826 69.7891 395.363 70.668 396.32 71.332C397.297 72.0156 398.498 72.3574 399.924 72.3574C401.877 72.3574 403.4 71.8984 404.494 70.9805C405.529 70.0625 406.047 68.8613 406.047 67.377V63.0117H405.812C403.82 65.3555 401.037 66.5273 397.463 66.5273C393.576 66.5273 390.5 65.0137 388.234 61.9863C385.91 59.0176 384.748 55.1309 384.748 50.3262C384.748 45.5215 385.91 41.6055 388.234 38.5781C390.539 35.5703 393.615 34.0664 397.463 34.0664C401.018 34.0664 403.801 35.248 405.812 37.6113H406.047L407.014 34.623H415.305V67.4941C415.305 71.3418 413.859 74.4473 410.969 76.8105C408.137 79.1152 404.455 80.2676 399.924 80.2676ZM394.123 50.3262C394.123 55.7363 396.184 58.4414 400.305 58.4414C404.426 58.4414 406.486 55.7363 406.486 50.3262C406.486 47.9043 405.979 45.9512 404.963 44.4668C403.908 42.9434 402.355 42.1816 400.305 42.1816C398.234 42.1816 396.672 42.9434 395.617 44.4668C394.621 45.9121 394.123 47.8652 394.123 50.3262Z" fill="black"/>
<path d="M56.6464 26.7971H16.0766L11 18H46.1997C47.8332 17.9998 49.4378 18.4298 50.8527 19.2469C52.2673 20.064 53.4427 21.2394 54.2603 22.6551L56.6464 26.7971Z" fill="#2F71FF"/>
<path d="M49.0396 39.9874H23.6781L18.6068 31.1904H38.5929C40.2256 31.1898 41.8294 31.62 43.2434 32.4372C44.6575 33.2544 45.8317 34.4299 46.6482 35.8453L49.0396 39.9874Z" fill="#2F71FF"/>
<path d="M41.4275 53.1778H31.2848L26.2138 44.3861H30.9859C32.6194 44.3858 34.2241 44.8158 35.639 45.6329C37.0539 46.4501 38.229 47.6253 39.0466 49.041L41.4275 53.1778Z" fill="#2F71FF"/>
<path d="M75.5915 18L43.2958 74L36.6551 62.4932L62.3156 18H75.5915Z" fill="#2F71FF"/>
</svg>
