<svg width="341" height="288" viewBox="0 0 341 288" fill="none" xmlns="http://www.w3.org/2000/svg">
<path d="M6 227.819C11.7062 194.89 117.015 67.0161 168.956 5C247.416 93.9081 337.398 206.415 337.398 227.819C290.871 205.866 249.611 210.806 168.956 233.856C58.6726 206.964 37.823 220.684 6 227.819Z" fill="#50FA7B"/>
<path d="M268.662 144.83C268.662 198.737 224.962 242.438 171.055 242.438C117.148 242.438 73.4478 198.737 73.4478 144.83C92.6402 94.9301 96.6235 51.3359 171.055 51.3359C241.793 51.336 249.744 88.8983 268.662 144.83Z" fill="#E8B8FF"/>
<path d="M37.4379 99.8654C45.6633 83.9631 76.1884 100.962 85.6932 109.187V157.991C80.9408 160.55 68.2555 164.133 55.5336 157.991C44.0182 144.465 35.9264 102.788 37.4379 99.8654Z" fill="#E8B8FF"/>
<path d="M305.035 99.8393C296.81 83.937 266.285 100.936 256.78 109.161V157.965C261.532 160.524 274.218 164.106 286.94 157.965C298.455 144.439 306.547 102.762 305.035 99.8393Z" fill="#E8B8FF"/>
<path d="M171.055 48.8684C93.4627 48.8684 97.8495 85.334 84.689 106.994H73.7219C73.3443 111.223 73.5908 118.798 76.7825 120.806C73.9093 120.888 70.0136 121.085 67.1416 121.251C66.7761 125.638 67.5803 134.467 73.7219 134.686C79.8635 134.905 70.4318 135.691 64.9482 136.057C66.045 142.18 69.8835 154.207 76.4637 153.33C76.5551 147.664 81.2892 131.067 99.4946 110.01C99.2204 86.2479 113.149 47.4426 171.055 82.318C228.961 47.4426 242.889 86.2478 242.615 110.01C260.821 131.067 265.555 147.664 265.646 153.33C272.226 154.207 276.065 142.18 277.162 136.057C271.678 135.691 262.246 134.905 268.388 134.686C274.53 134.467 275.334 125.638 274.968 121.251C272.096 121.085 268.201 120.888 265.327 120.806C268.519 118.798 268.766 111.223 268.388 106.994H257.421C244.26 85.3339 248.647 48.8684 171.055 48.8684Z" fill="#282A36"/>
<path d="M120.058 70.2542C115.397 77.6569 113.752 81.7696 101.962 92.7367C113.587 89.8853 121.429 86.4306 123.896 85.0597C154.056 111.107 167.246 101.869 163.926 99.8653C148.024 90.2691 132.944 80.3987 120.058 70.2542Z" fill="#282A36"/>
<path d="M222.552 71.8993C227.213 79.3021 228.858 83.4147 240.648 94.3819C229.023 91.5304 221.181 88.0758 218.714 86.7049C188.554 112.752 175.364 103.514 178.684 101.51C194.586 91.9143 209.666 82.0439 222.552 71.8993Z" fill="#282A36"/>
<path d="M154.111 121.827C150.638 128.681 137.331 139.977 111.888 130.326C118.102 117.714 135.248 98.3569 154.111 121.827Z" fill="white"/>
<circle cx="135.467" cy="120.73" r="9.87039" fill="#44475A"/>
<path d="M133.548 108.666C116.658 109.105 113.259 128.681 102.017 129.778C100.263 132.848 102.748 134.347 104.211 134.713C118.249 129.668 115.726 116.891 133.548 112.23C146.489 110.256 152.466 120.73 154.385 123.472C156.359 124.13 157.306 123.472 156.579 121.826C151.534 110.421 145.063 108.367 133.548 108.666Z" fill="#282A36"/>
<path d="M188.079 121.827C191.552 128.681 204.859 139.977 230.302 130.326C224.088 117.714 206.943 98.3569 188.079 121.827Z" fill="white"/>
<circle r="9.87039" transform="matrix(-1 0 0 1 206.723 120.73)" fill="#44475A"/>
<path d="M208.642 108.666C225.532 109.105 228.932 128.681 240.173 129.778C241.928 132.848 239.442 134.347 237.979 134.713C223.942 129.668 226.464 116.891 208.642 112.23C195.701 110.256 189.724 120.73 187.805 123.472C185.831 124.13 184.884 123.472 185.612 121.826C190.656 110.421 197.127 108.367 208.642 108.666Z" fill="#282A36"/>
<path d="M94.2852 168.958C109.913 181.296 227.535 184.038 248.373 168.958M97.8495 159.636C95.7474 162.195 92.5304 169.561 96.4786 178.554M244.86 159.636C246.962 162.195 250.179 169.561 246.231 178.554" stroke="#282A36" stroke-width="9" stroke-linecap="round"/>
<path d="M115.671 174.99C147.75 181.844 200.666 181.296 226.987 176.635C194.634 238.051 149.669 238.599 115.671 174.99Z" fill="#282A36"/>
<path d="M141.992 197.747C138.921 195.992 134.863 186.049 133.218 181.296L145.282 182.667C145.465 188.425 145.063 199.502 141.992 197.747Z" fill="#FEFEFE"/>
<path d="M200.703 198.021C203.774 196.266 207.832 186.323 209.477 181.57L197.413 182.941C197.23 188.699 197.632 199.776 200.703 198.021Z" fill="#FEFEFE"/>
<path d="M153.816 181.296C137.365 187.218 164.235 210.633 171.363 214.472C178.492 210.633 205.361 187.218 188.911 181.296C185.895 179.651 178.163 178.28 171.363 185.957C164.564 178.28 156.832 179.651 153.816 181.296Z" fill="#FF8B8B"/>
<path d="M168.199 100.882C168.904 97.7875 173.304 97.7645 174.042 100.852L189.636 166.12C189.859 167.053 189.622 168.036 189 168.765L173.391 187.057C172.175 188.482 169.965 188.457 168.783 187.004L153.917 168.739C153.334 168.023 153.113 167.078 153.319 166.178L168.199 100.882Z" fill="#CC9EE1"/>
<circle cx="211.633" cy="126.186" r="28.3529" stroke="#44475A" stroke-width="8"/>
<path d="M143.637 237.503C162.062 244.96 165.023 234.761 171.055 234.761C177.087 234.761 180.048 244.96 198.473 237.503C202.037 244.083 200.885 247.812 194.086 258.34C193.903 255.507 193.154 250.608 191.618 253.679C189.973 258.888 188.328 264.098 185.861 266.017C185.678 264.189 185.038 261.082 183.941 263.275C180.514 270.13 174.784 276.71 171.055 280C167.326 276.71 161.596 270.13 158.169 263.275C157.072 261.082 156.432 264.189 156.249 266.017C153.782 264.098 152.137 258.888 150.492 253.679L150.492 253.679C148.956 250.608 148.207 255.507 148.024 258.34C141.224 247.812 140.073 244.083 143.637 237.503Z" fill="#282A36"/>
</svg>
